{"title":"Pierced Arianna Awkwardly Strips and Masturbates on Cam","uid":14239175,"size":142146944,"categoryP":"porn","categoryS":"movie_clips","magnet":"?xt=urn:btih:9f0113e2be5867ee8b10606efa4e730c2fa3dea1&amp;dn=Pierced+Arianna+Awkwardly+Strips+and+Masturbates+on+Cam&amp;tr=udp%3A%2F%2Ftracker.leechers-paradise.org%3A6969&amp;tr=udp%3A%2F%2Fzer0day.ch%3A1337&amp;tr=udp%3A%2F%2Fopen.demonii.com%3A1337&amp;tr=udp%3A%2F%2Ftracker.coppersurfer.tk%3A6969&amp;tr=udp%3A%2F%2Fexodus.desync.com%3A6969","seeders":0,"leechers":0,"uploader":"camcollector","files":3,"time":1460127145,"description":"Welcome to the second release from camcollector!\r\n\r\nThis video features Arianna, who starts off a little awkward but shows what she can do with a dildo!\r\n\r\nVideo details:\r\n\r\nInput #0, mov,mp4,m4a,3gp,3g2,mj2, from 'arianna.mp4':\r\n  Metadata:\r\n    major_brand     : isom\r\n    minor_version   : 512\r\n    compatible_brands: isomiso2avc1mp41\r\n    encoder         : Lavf56.36.100\r\n  Duration: 00:31:55.17, start: 0.069063, bitrate: 593 kb/s\r\n    Stream #0:0(und): Video: h264 (High) (avc1 / 0x31637661), yuv420p, 640x360, 564 kb/s, 30 fps, 30 tbr, 15360 tbn, 60 tbc (default)\r\n    Metadata:\r\n      handler_name    : VideoHandler\r\n    Stream #0:1(und): Audio: mp3 (mp4a / 0x6134706D), 16000 Hz, mono, s16p, 24 kb/s (default)\r\n    Metadata:\r\n      handler_name    : SoundHandler\r\n\r\nPreview images:\r\n  \nhttp://spankworthy.com/video/35\r\n\r\n\r\nComments welcome, let me know which girls you like and I'll be sure to get more!","torrent":{"xt":"urn:btih:9f0113e2be5867ee8b10606efa4e730c2fa3dea1","amp;dn":"Pierced+Arianna+Awkwardly+Strips+and+Masturbates+on+Cam","amp;tr":["udp%3A%2F%2Ftracker.leechers-paradise.org%3A6969","udp%3A%2F%2Fzer0day.ch%3A1337","udp%3A%2F%2Fopen.demonii.com%3A1337","udp%3A%2F%2Ftracker.coppersurfer.tk%3A6969","udp%3A%2F%2Fexodus.desync.com%3A6969"],"infoHash":"9f0113e2be5867ee8b10606efa4e730c2fa3dea1","infoHashBuffer":{"type":"Buffer","data":[159,1,19,226,190,88,103,238,139,16,96,110,250,78,115,12,47,163,222,161]},"announce":[],"urlList":[]}}